<svg xmlns="http://www.w3.org/2000/svg" version="1.1" xmlns:xlink="http://www.w3.org/1999/xlink" xmlns:svgjs="http://svgjs.dev/svgjs" width="320" height="300" viewBox="0 0 2000 1440"><g transform="matrix(1,0,0,1,0.0022081053618876467,0.5829959514169332)"><svg viewBox="0 0 343 247" data-background-color="#000000" preserveAspectRatio="xMidYMid meet" height="1440" width="2000" xmlns="http://www.w3.org/2000/svg" xmlns:xlink="http://www.w3.org/1999/xlink"><g id="tight-bounds" transform="matrix(1,0,0,1,-0.0003786900695672557,-0.09999999999999432)"><svg viewBox="0 0 343.00075738013913 247.2" height="247.2" width="343.00075738013913"><g><svg viewBox="0 0 344.7157611670398 248.43599999999995" height="247.2" width="343.00075738013913"><g></g><g transform="matrix(1,0,0,1,0,0.6179999999999808)"><svg viewBox="0 0 127.13661041819515 247.2" height="247.2" width="127.13661041819515"><g id="textblocktransform"><svg viewBox="0 0 127.13661041819515 247.2" height="247.2" width="127.13661041819515" id="textblock"><g><svg viewBox="0 0 127.13661041819515 247.2" height="247.2" width="127.13661041819515"><g transform="matrix(1,0,0,1,0,0)"><svg width="127.13661041819515" viewBox="0.29 -32.67 17.12 33.28" height="247.2" data-palette-color="url(#61b36a7b-8ff4-4912-9ce1-b258fffaa77a)"><g class="wordmark-text-0" data-fill-palette-color="primary" id="text-0"></g></svg></g></svg></g></svg></g></svg></g><g transform="matrix(1,0,0,1,266.14533592859516,16.66747721928961)"><svg viewBox="0 0 78.5704252384446 215.10104556142073" height="215.10104556142073" width="78.5704252384446"><g><svg xmlns="http://www.w3.org/2000/svg" xmlns:xlink="http://www.w3.org/1999/xlink" version="1.1" x="0" y="0" viewBox="32.796565197077946 6.832000000000006 32.32585631838034 88.49799999999999" enable-background="new 0 0 100 100" xml:space="preserve" height="215.10104556142073" width="78.5704252384446" class="icon-icon-0" data-fill-palette-color="accent" id="icon-0"><path fill="none" stroke="url(#6d3bb790-8e60-4b35-9915-0340a998eb7a)" stroke-linecap="round" stroke-linejoin="round" stroke-miterlimit="10" d="M40 92.831c0 0-1-9.5-1.833-14.333 0 0-0.75-4.75-1.083-5.917-0.333-1.167-0.083-3 0-4.583 0.083-1.583-0.917-2.333-0.833-6.417s-1.75-3.833-2.167-9.75c-0.417-5.917-1.083-8.917-1.25-11.583-0.167-2.667 0.25-4.083 0.75-6.583s1-4.833 1-6.083c0 0 0-1.917-0.167-3.5-0.167-1.583 1.129-3.417 1.981-5.667 0.852-2.25 1.435-4.583 2.269-6.25 0.833-1.667 0.917-5.333 2.667-5.333s3.5 1.083 1.583 8.25c0 0-0.667 1.833-0.917 2.083s-0.75 5.083-0.917 6.833c-0.167 1.75-0.083 5.75 0.333 6.5"></path><path fill="none" stroke="url(#6d3bb790-8e60-4b35-9915-0340a998eb7a)" stroke-linecap="round" stroke-linejoin="round" stroke-miterlimit="10" d="M59 23.581c0 0 0.583-1.5 2.75-1.5 0 0 2.75-0.167 2.75 4.75s0.167 6 0 8.333c-0.167 2.333-0.083 5.333 0.5 7.167s-1.083 5.667-1.5 7.5-0.75 6.25-4.5 9.583c-3.75 3.333-3.167 7.167-3.167 10.5 0 3.333 1.333 11.167 2.167 14.083 0.833 2.917 3.417 11.333 3.417 11.333"></path><path fill="none" stroke="url(#6d3bb790-8e60-4b35-9915-0340a998eb7a)" stroke-linecap="round" stroke-linejoin="round" stroke-miterlimit="10" d="M56.741 24.37c0 0 2.676-2.122 4.176 1.628s1 5.167 1 6.917c0 1.75-0.25 6.083-0.833 7.25-0.583 1.167-0.667 4.75-3.583 5.417h-1.7"></path><path fill="none" stroke="url(#6d3bb790-8e60-4b35-9915-0340a998eb7a)" stroke-linecap="round" stroke-linejoin="round" stroke-miterlimit="10" d="M41.074 28.421c0 0 1.092-0.506 3.092-1.173 2-0.667 6.417-2.417 7.833-2.917s4.75-1.244 5.583 2.045c0.833 3.289 0.583 4.955 0.75 7.372 0.167 2.417 0.417 5.25-0.667 7.667-1.083 2.417-1.917 3.833-2.333 5.583-0.417 1.75-2.583 1.5-2.583 1.5"></path><path fill="none" stroke="url(#6d3bb790-8e60-4b35-9915-0340a998eb7a)" stroke-linecap="round" stroke-linejoin="round" stroke-miterlimit="10" d="M41.287 30.118c0 0 3.775-1.995 6.838-1.495 3.062 0.5 5.25-0.188 5.812 2 0.563 2.188 0.875 6.188 1.438 7.75 0.562 1.562 0.75 3.5-0.313 5.312-1.062 1.812-2.625 5.25-2.625 5.25s-0.75 1.375-1.875 1.25-3.125-1.25-1.625-5.938c0 0 0.813-2.375 1.375-2.125"></path><path fill="none" stroke="url(#6d3bb790-8e60-4b35-9915-0340a998eb7a)" stroke-linecap="round" stroke-linejoin="round" stroke-miterlimit="10" d="M42.25 31.748c0 0 3.812 5.25 4.75 5.375 0.937 0.125 0.937 0.125 0.937 0.125"></path><path fill="none" stroke="url(#6d3bb790-8e60-4b35-9915-0340a998eb7a)" stroke-linecap="round" stroke-linejoin="round" stroke-miterlimit="10" d="M48.25 34.498c0 0-0.188 5.798 1.75 7.711"></path><path fill="none" stroke="url(#6d3bb790-8e60-4b35-9915-0340a998eb7a)" stroke-linecap="round" stroke-linejoin="round" stroke-miterlimit="10" d="M48.496 38.354c0 0-1.246 1.384-4.308 1.014"></path></svg></g></svg></g></svg></g><defs></defs><mask id="aca94eab-d914-4f59-87f3-fdf66d6edf87"><g id="SvgjsG1005"><svg viewBox="0 0 343.00075738013913 247.2" height="247.2" width="343.00075738013913"><g><svg viewBox="0 0 344.7157611670398 248.43599999999995" height="247.2" width="343.00075738013913"><g><rect width="22.292751110399998" height="248.43599999999995" x="185.49459761819514" y="0" fill="white" opacity="1" stroke-width="0" stroke="transparent" fill-opacity="1" class="rect-qz-0" rx="1%" id="SvgjsRect1004" data-palette-color="url(#61b36a7b-8ff4-4912-9ce1-b258fffaa77a)"></rect></g><g transform="matrix(1,0,0,1,0,0.6179999999999808)"><svg viewBox="0 0 127.13661041819515 247.2" height="247.2" width="127.13661041819515"><g id="SvgjsG1003"><svg viewBox="0 0 127.13661041819515 247.2" height="247.2" width="127.13661041819515" id="SvgjsSvg1002"><g><svg viewBox="0 0 127.13661041819515 247.2" height="247.2" width="127.13661041819515"><g transform="matrix(1,0,0,1,0,0)"><svg width="127.13661041819515" viewBox="0.29 -32.67 17.12 33.28" height="247.2" data-palette-color="url(#61b36a7b-8ff4-4912-9ce1-b258fffaa77a)"><g class="wordmark-text-0" data-fill-palette-color="primary" id="SvgjsG1001"><path d="M10.94-10.6L10.94-32.59Q12.45-32.47 13.13-32.47L13.13-32.47 15.04-32.47Q16.24-32.47 17.41-32.67L17.41-32.67 17.41-10.79Q17.41-5.42 14.55-2.34L14.55-2.34Q11.84 0.61 7.23 0.61L7.23 0.61Q4.05 0.61 1.9-0.66L1.9-0.66Q1.1-1.12 0.29-1.78L0.29-1.78 0.29-8.84 0.46-8.89Q1.49-7.28 2.87-6.25 4.25-5.22 6.3-5.22L6.3-5.22Q10.94-5.22 10.94-10.6L10.94-10.6Z" fill="white"></path></g></svg></g></svg></g></svg></g></svg></g><g transform="matrix(1,0,0,1,266.14533592859516,16.66747721928961)"><svg viewBox="0 0 78.5704252384446 215.10104556142073" height="215.10104556142073" width="78.5704252384446"><g><svg xmlns="http://www.w3.org/2000/svg" xmlns:xlink="http://www.w3.org/1999/xlink" version="1.1" x="0" y="0" viewBox="32.796565197077946 6.832000000000006 32.32585631838034 88.49799999999999" enable-background="new 0 0 100 100" xml:space="preserve" height="215.10104556142073" width="78.5704252384446" class="icon-icon-0" data-fill-palette-color="accent" id="SvgjsSvg1000"><path fill="black" stroke="url(#6d3bb790-8e60-4b35-9915-0340a998eb7a)" stroke-linecap="round" stroke-linejoin="round" stroke-miterlimit="10" d="M40 92.831c0 0-1-9.5-1.833-14.333 0 0-0.75-4.75-1.083-5.917-0.333-1.167-0.083-3 0-4.583 0.083-1.583-0.917-2.333-0.833-6.417s-1.75-3.833-2.167-9.75c-0.417-5.917-1.083-8.917-1.25-11.583-0.167-2.667 0.25-4.083 0.75-6.583s1-4.833 1-6.083c0 0 0-1.917-0.167-3.5-0.167-1.583 1.129-3.417 1.981-5.667 0.852-2.25 1.435-4.583 2.269-6.25 0.833-1.667 0.917-5.333 2.667-5.333s3.5 1.083 1.583 8.25c0 0-0.667 1.833-0.917 2.083s-0.75 5.083-0.917 6.833c-0.167 1.75-0.083 5.75 0.333 6.5"></path><path fill="black" stroke="url(#6d3bb790-8e60-4b35-9915-0340a998eb7a)" stroke-linecap="round" stroke-linejoin="round" stroke-miterlimit="10" d="M59 23.581c0 0 0.583-1.5 2.75-1.5 0 0 2.75-0.167 2.75 4.75s0.167 6 0 8.333c-0.167 2.333-0.083 5.333 0.5 7.167s-1.083 5.667-1.5 7.5-0.75 6.25-4.5 9.583c-3.75 3.333-3.167 7.167-3.167 10.5 0 3.333 1.333 11.167 2.167 14.083 0.833 2.917 3.417 11.333 3.417 11.333"></path><path fill="black" stroke="url(#6d3bb790-8e60-4b35-9915-0340a998eb7a)" stroke-linecap="round" stroke-linejoin="round" stroke-miterlimit="10" d="M56.741 24.37c0 0 2.676-2.122 4.176 1.628s1 5.167 1 6.917c0 1.75-0.25 6.083-0.833 7.25-0.583 1.167-0.667 4.75-3.583 5.417h-1.7"></path><path fill="black" stroke="url(#6d3bb790-8e60-4b35-9915-0340a998eb7a)" stroke-linecap="round" stroke-linejoin="round" stroke-miterlimit="10" d="M41.074 28.421c0 0 1.092-0.506 3.092-1.173 2-0.667 6.417-2.417 7.833-2.917s4.75-1.244 5.583 2.045c0.833 3.289 0.583 4.955 0.75 7.372 0.167 2.417 0.417 5.25-0.667 7.667-1.083 2.417-1.917 3.833-2.333 5.583-0.417 1.75-2.583 1.5-2.583 1.5"></path><path fill="black" stroke="url(#6d3bb790-8e60-4b35-9915-0340a998eb7a)" stroke-linecap="round" stroke-linejoin="round" stroke-miterlimit="10" d="M41.287 30.118c0 0 3.775-1.995 6.838-1.495 3.062 0.5 5.25-0.188 5.812 2 0.563 2.188 0.875 6.188 1.438 7.75 0.562 1.562 0.75 3.5-0.313 5.312-1.062 1.812-2.625 5.25-2.625 5.25s-0.75 1.375-1.875 1.25-3.125-1.25-1.625-5.938c0 0 0.813-2.375 1.375-2.125"></path><path fill="black" stroke="url(#6d3bb790-8e60-4b35-9915-0340a998eb7a)" stroke-linecap="round" stroke-linejoin="round" stroke-miterlimit="10" d="M42.25 31.748c0 0 3.812 5.25 4.75 5.375 0.937 0.125 0.937 0.125 0.937 0.125"></path><path fill="black" stroke="url(#6d3bb790-8e60-4b35-9915-0340a998eb7a)" stroke-linecap="round" stroke-linejoin="round" stroke-miterlimit="10" d="M48.25 34.498c0 0-0.188 5.798 1.75 7.711"></path><path fill="black" stroke="url(#6d3bb790-8e60-4b35-9915-0340a998eb7a)" stroke-linecap="round" stroke-linejoin="round" stroke-miterlimit="10" d="M48.496 38.354c0 0-1.246 1.384-4.308 1.014"></path></svg></g></svg></g></svg></g><defs><mask></mask></defs></svg><rect width="343.00075738013913" height="247.2" fill="black" stroke="none" visibility="hidden"></rect></g></mask><linearGradient x1="0" x2="1" y1="0.578" y2="0.595" id="61b36a7b-8ff4-4912-9ce1-b258fffaa77a"><stop stop-color="#6ee2f5" offset="0"></stop><stop stop-color="#6454f0" offset="1"></stop></linearGradient><rect width="343.00075738013913" height="247.2" fill="url(#61b36a7b-8ff4-4912-9ce1-b258fffaa77a)" mask="url(#aca94eab-d914-4f59-87f3-fdf66d6edf87)" data-fill-palette-color="primary"></rect></svg><rect width="343.00075738013913" height="247.2" fill="none" stroke="none" visibility="hidden"></rect></g></svg></g></svg>